<svg width="140" height="46" viewBox="0 0 140 46" fill="none" xmlns="http://www.w3.org/2000/svg">
<path d="M33.7999 27.6987H19.5499V41.7955H33.7999V27.6987Z" fill="white"/>
<path d="M15.7999 3.61084H1.54993V17.7076H15.7999V3.61084Z" fill="white"/>
<path fill-rule="evenodd" clip-rule="evenodd" d="M21.2 5.24288C24.25 2.22568 29.15 2.22568 32.15 5.24288C35.2 8.26009 35.2 13.1074 32.15 16.0751C29.1 19.0923 24.2 19.0923 21.2 16.0751C18.15 13.1074 18.15 8.21063 21.2 5.24288Z" fill="#8DB6AB"/>
<path d="M8.69995 42.4388C12.9802 42.4388 16.45 39.0063 16.45 34.7721C16.45 30.538 12.9802 27.1055 8.69995 27.1055C4.41974 27.1055 0.949951 30.538 0.949951 34.7721C0.949951 39.0063 4.41974 42.4388 8.69995 42.4388Z" fill="white"/>
<path fill-rule="evenodd" clip-rule="evenodd" d="M9.55 19.0923C10.55 21.7138 13.95 21.7633 17.35 21.8127C21.6 21.8622 25.95 21.9611 26.95 26.3633H25.45C24.5 23.3461 20.9 23.2966 17.3 23.2471C13.15 23.1977 9.1 23.0987 8 19.0923H9.55Z" fill="white"/>
<path fill-rule="evenodd" clip-rule="evenodd" d="M51.25 18.8945C54.75 18.8945 57.35 17.1633 57.35 13.9483C57.35 10.9805 55.15 9.64505 51.9 9.19989C49.95 8.90311 49.3 8.55688 49.3 7.81494C49.3 7.07301 49.95 6.62784 51.1 6.62784C52.25 6.62784 52.9 7.12247 53.05 8.01279H57.1C56.9 4.94612 54.6 3.01709 51.15 3.01709C47.7 3.01709 45.2 4.79774 45.2 7.91387C45.2 10.8816 47.35 12.0687 50.5 12.5633C52.45 12.8601 53.15 13.3053 53.15 14.0967C53.15 14.7891 52.45 15.2838 51.25 15.2838C49.9 15.2838 49.2 14.7397 49.1 13.701H45C45.15 17.0149 47.55 18.8945 51.25 18.8945ZM59.05 18.6472H63V12.2666C63 11.03 63.8 10.2386 65.05 10.2386C66.2 10.2386 66.85 10.9805 66.85 12.2666V18.6472H70.8V12.2666C70.8 11.03 71.6 10.2386 72.85 10.2386C74 10.2386 74.65 10.9805 74.65 12.2666V18.6472H78.6V11.7719C78.6 8.50742 77 6.72677 74.1 6.72677C72.4 6.72677 71.05 7.36978 69.95 8.6558C69.25 7.41924 68 6.72677 66.35 6.72677C64.85 6.72677 63.6 7.27085 62.8 8.2601L62.65 6.97408H59V18.6472H59.05ZM85.9 18.8945C87.3 18.8945 88.55 18.4493 89.55 17.6085L89.75 18.6472H93.05V6.97408H89.7L89.55 8.01279C88.6 7.22139 87.35 6.72677 85.9 6.72677C82.5 6.72677 80.05 9.19989 80.05 12.8106C80.05 16.273 82.35 18.8945 85.9 18.8945ZM83.95 12.8106C83.95 11.3268 85 10.2386 86.5 10.2386C88 10.2386 89.05 11.2773 89.05 12.8106C89.05 14.2945 88 15.3827 86.5 15.3827C85.05 15.3827 83.95 14.2945 83.95 12.8106ZM95.1 18.6472H99.05V13.2063C99.05 11.3762 100.05 10.4364 101.85 10.4364C102.3 10.4364 102.75 10.4859 103.3 10.5848V6.97408C102.85 6.87515 102.4 6.77623 101.95 6.77623C100.7 6.77623 99.6 7.22139 98.85 8.16118L98.7 6.97408H95.1V18.6472ZM111.1 18.8945C111.8 18.8945 112.55 18.7956 113.35 18.6472V15.4816C112.95 15.5311 112.6 15.5311 112.25 15.5311C111.2 15.5311 110.6 15.1848 110.6 13.9977V10.1397H113.2V6.92462H110.6V4.15473L106.65 4.55042V6.92462H104.7V10.1397H106.65V14.5418C106.6 17.559 108.35 18.8945 111.1 18.8945ZM120.95 18.8945C123.8 18.8945 126.1 17.3612 126.95 14.8881H122.9C122.5 15.2838 121.75 15.5805 121 15.5805C119.75 15.5805 118.85 14.987 118.55 13.8988H127.2C127.85 9.79343 125.15 6.67731 121 6.67731C117.3 6.67731 114.65 9.19989 114.65 12.7612C114.6 16.3719 117.25 18.8945 120.95 18.8945ZM118.5 11.673C118.85 10.6343 119.75 9.99128 121 9.99128C122.3 9.99128 123.2 10.6343 123.5 11.673H118.5ZM127.25 18.6472V18.2515L130.8 12.7117L127.4 7.36978V6.97408H131.65L132.65 8.75472L133.45 10.1397L134.25 8.75472L135.25 6.97408H139.45V7.36978L136.05 12.7612L139.6 18.2515V18.6472H135.3L134.25 16.8171L133.45 15.4321L132.65 16.8171L131.6 18.6472H127.25ZM51.25 42.3397C54.75 42.3397 57.35 40.6085 57.35 37.3934C57.35 34.4257 55.15 33.0902 51.9 32.6451C49.95 32.3483 49.3 32.002 49.3 31.2601C49.3 30.5182 49.95 30.073 51.1 30.073C52.25 30.073 52.9 30.5676 53.05 31.458H57.1C56.9 28.3913 54.6 26.4623 51.15 26.4623C47.7 26.4623 45.2 28.2429 45.2 31.359C45.2 34.3268 47.35 35.5139 50.5 36.0085C52.45 36.3053 53.15 36.7504 53.15 37.5418C53.15 38.2343 52.45 38.7289 51.25 38.7289C49.9 38.7289 49.2 38.1848 49.1 37.1461H45C45.15 40.4601 47.55 42.3397 51.25 42.3397ZM65.05 42.3397C68.8 42.3397 71.55 39.7676 71.55 36.2558C71.55 32.6945 68.85 30.1719 65.05 30.1719C61.3 30.1719 58.55 32.6945 58.55 36.2558C58.55 39.8171 61.25 42.3397 65.05 42.3397ZM62.5 36.2558C62.5 34.7719 63.6 33.6838 65.05 33.6838C66.5 33.6838 67.6 34.7225 67.6 36.2558C67.6 37.7397 66.55 38.8278 65.05 38.8278C63.6 38.8278 62.5 37.7397 62.5 36.2558ZM74.25 30.1225V30.5676H72.3V33.7827H74.25V42.0429H78.2V33.7827H80.75V30.6666H78.1V30.5676C78.1 29.5784 78.65 29.1332 79.8 29.1332C80.1 29.1332 80.55 29.1332 80.9 29.2321V26.5612C80.15 26.4623 79.5 26.3633 78.85 26.3633C76.05 26.3633 74.25 27.5504 74.25 30.1225ZM88.5 42.3397C89.2 42.3397 89.95 42.2408 90.75 42.0924V38.9268C90.35 38.9762 90 38.9762 89.65 38.9762C88.6 38.9762 88 38.63 88 37.4429V33.6343H90.6V30.4192H88V27.6493L84.05 28.045V30.4192H82.1V33.6343H84.05V38.0364C84 41.0042 85.8 42.3397 88.5 42.3397Z" fill="white"/>
</svg>
